{
  "accessors": [
    {
      "bufferView": 2,
      "componentType": 5126,
      "count": 65532,
      "max": [
        2.40818190574646,
        1.2998089790344238,
        1.1765830516815186
      ],
      "min": [
        -2.2441489696502686,
        -1.3721849918365479,
        0.18022899329662323
      ],
      "type": "VEC3"
    },
    {
      "bufferView": 2,
      "byteOffset": 786384,
      "componentType": 5126,
      "count": 65532,
      "max": [
        0.99997103214263916,
        0.99998807907104492,
        0.99999630451202393
      ],
      "min": [
        -0.99994981288909912,
        -0.999930739402771,
        -0.99999558925628662
      ],
      "type": "VEC3"
    },
    {
      "bufferView": 1,
      "componentType": 5126,
      "count": 65532,
      "max": [
        0.99996101856231689,
        0.99997097253799438
      ],
      "min": [
        0,
        0
      ],
      "type": "VEC2"
    },
    {
      "bufferView": 0,
      "componentType": 5125,
      "count": 267933,
      "max": [
        65531
      ],
      "min": [
        0
      ],
      "type": "SCALAR"
    },
    {
      "bufferView": 2,
      "byteOffset": 1572768,
      "componentType": 5126,
      "count": 65533,
      "max": [
        2.5115180015563965,
        1.6481939554214478,
        1.2036399841308594
      ],
      "min": [
        -1.3569580316543579,
        -1.8935819864273071,
        0.14687399566173553
      ],
      "type": "VEC3"
    },
    {
      "bufferView": 2,
      "byteOffset": 2359164,
      "componentType": 5126,
      "count": 65533,
      "max": [
        0.99998068809509277,
        0.99999678134918213,
        0.99994230270385742
      ],
      "min": [
        -0.99997997283935547,
        -0.99995326995849609,
        -0.99999558925628662
      ],
      "type": "VEC3"
    },
    {
      "bufferView": 1,
      "byteOffset": 524256,
      "componentType": 5126,
      "count": 65533,
      "max": [
        0.9999920129776001,
        0.99999898672103882
      ],
      "min": [
        0,
        0
      ],
      "type": "VEC2"
    },
    {
      "bufferView": 0,
      "byteOffset": 1071732,
      "componentType": 5125,
      "count": 212238,
      "max": [
        65532
      ],
      "min": [
        0
      ],
      "type": "SCALAR"
    },
    {
      "bufferView": 2,
      "byteOffset": 3145560,
      "componentType": 5126,
      "count": 57958,
      "max": [
        2.4972140789031982,
        2.068756103515625,
        1.2026610374450684
      ],
      "min": [
        -2.2792119979858398,
        -2.0851819515228271,
        0.13574400544166565
      ],
      "type": "VEC3"
    },
    {
      "bufferView": 2,
      "byteOffset": 3841056,
      "componentType": 5126,
      "count": 57958,
      "max": [
        0.99994015693664551,
        0.9999544620513916,
        0.99999320507049561
      ],
      "min": [
        -0.99994528293609619,
        -0.99994838237762451,
        -0.99994981288909912
      ],
      "type": "VEC3"
    },
    {
      "bufferView": 1,
      "byteOffset": 1048520,
      "componentType": 5126,
      "count": 57958,
      "max": [
        1,
        1
      ],
      "min": [
        0,
        0
      ],
      "type": "VEC2"
    },
    {
      "bufferView": 0,
      "byteOffset": 1920684,
      "componentType": 5125,
      "count": 139392,
      "max": [
        57957
      ],
      "min": [
        0
      ],
      "type": "SCALAR"
    }
  ],
  "asset": {
    "extras": {
      "author": "Digital Archive of Natural History (DiNArDa) (https://sketchfab.com/disc3d)",
      "license": "CC-BY-4.0 (http://creativecommons.org/licenses/by/4.0/)",
      "source": "https://sketchfab.com/3d-models/cicindela-campestris-b13a625c2e3b4b6aa26a27711a0cac39",
      "title": "Cicindela campestris"
    },
    "generator": "Sketchfab-7.39.0",
    "version": "2.0"
  },
  "bufferViews": [
    {
      "buffer": 0,
      "byteLength": 2478252,
      "byteOffset": 0,
      "name": "floatBufferViews",
      "target": 34963
    },
    {
      "buffer": 0,
      "byteLength": 1512184,
      "byteOffset": 2478252,
      "byteStride": 8,
      "name": "floatBufferViews",
      "target": 34962
    },
    {
      "buffer": 0,
      "byteLength": 4536552,
      "byteOffset": 3990436,
      "byteStride": 12,
      "name": "floatBufferViews",
      "target": 34962
    }
  ],
  "buffers": [
    {
      "byteLength": 8526988,
      "uri": "scene.bin"
    }
  ],
  "images": [
    {
      "uri": "textures/Cicindela_Frankenstein_3.000_baseColor.png"
    },
    {
      "uri": "textures/Cicindela_Frankenstein_3.000_metallicRoughness.png"
    }
  ],
  "materials": [
    {
      "doubleSided": true,
      "emissiveFactor": [
        1,
        1,
        1
      ],
      "emissiveTexture": {
        "index": 0,
        "texCoord": 0
      },
      "name": "Cicindela_Frankenstein_3.000",
      "pbrMetallicRoughness": {
        "baseColorFactor": [
          1,
          1,
          1,
          1
        ],
        "baseColorTexture": {
          "index": 0,
          "texCoord": 0
        },
        "metallicFactor": 0,
        "metallicRoughnessTexture": {
          "index": 1,
          "texCoord": 0
        },
        "roughnessFactor": 0.45513570031454398
      }
    }
  ],
  "meshes": [
    {
      "primitives": [
        {
          "attributes": {
            "NORMAL": 1,
            "POSITION": 0,
            "TEXCOORD_0": 2
          },
          "indices": 3,
          "material": 0,
          "mode": 4
        }
      ]
    },
    {
      "primitives": [
        {
          "attributes": {
            "NORMAL": 5,
            "POSITION": 4,
            "TEXCOORD_0": 6
          },
          "indices": 7,
          "material": 0,
          "mode": 4
        }
      ]
    },
    {
      "primitives": [
        {
          "attributes": {
            "NORMAL": 9,
            "POSITION": 8,
            "TEXCOORD_0": 10
          },
          "indices": 11,
          "material": 0,
          "mode": 4
        }
      ]
    }
  ],
  "nodes": [
    {
      "children": [
        1
      ],
      "name": "RootNode (gltf orientation matrix)",
      "rotation": [
        -0.70710678118654746,
        -0,
        -0,
        0.70710678118654757
      ]
    },
    {
      "children": [
        2
      ],
      "matrix": [
        0.99996179342269897,
        0,
        -0.0087383044883608818,
        0,
        0,
        1,
        0,
        0,
        0.0087383044883608818,
        0,
        0.99996179342269897,
        0,
        -0.0058475383557379246,
        0,
        0.0010405749781057239,
        1
      ],
      "name": "RootNode (model correction matrix)"
    },
    {
      "children": [
        3,
        4,
        5
      ],
      "name": "Cicindela_Frankenstein_01.obj.cleaner.materialmerger.gles"
    },
    {
      "mesh": 0,
      "name": ""
    },
    {
      "mesh": 1,
      "name": ""
    },
    {
      "mesh": 2,
      "name": ""
    }
  ],
  "samplers": [
    {
      "magFilter": 9729,
      "minFilter": 9987,
      "wrapS": 10497,
      "wrapT": 10497
    }
  ],
  "scene": 0,
  "scenes": [
    {
      "name": "OSG_Scene",
      "nodes": [
        0
      ]
    }
  ],
  "textures": [
    {
      "sampler": 0,
      "source": 0
    },
    {
      "sampler": 0,
      "source": 1
    }
  ]
}

